<mxfile host="app.diagrams.net" modified="2023-10-16T02:17:37.966Z" agent="Mozilla/5.0 (Windows NT 10.0; Win64; x64; rv:109.0) Gecko/20100101 Firefox/118.0" version="22.0.4" etag="5gJJIqfm97r4Tt5S_Eeq" type="github">
  <diagram name="Page-1" id="Ipf7HZXX9dG3UrqujQIB">
    <mxGraphModel>
      <root>
        <mxCell id="0" />
        <mxCell id="1" parent="0" />
      </root>
    </mxGraphModel>
  </diagram>
</mxfile>
